<svg id="Camada_1" data-name="Camada 1" xmlns="http://www.w3.org/2000/svg" viewBox="0 0 60 40"><defs><style>.cls-1{fill:#182743;}.cls-2{fill:#6da9dd;}</style></defs><title>Logo-svg</title><g id="advogados-associados-logo"><path class="cls-1" d="M44.75,8s0-.7-1.17-1c0,0-1.11.08-.85,1.07.09.32.28.63.93.66,0,0-.81,2.8-6.6,0,0,0-4.45-3.17-6.59-2.87l-.07-1s2.16-.55-.6-3.49v0l0,0,0,0v0C27,4.34,29,4.89,29,4.89l-.07,1c-2.14-.3-6.59,2.87-6.59,2.87-5.79,2.8-6.6,0-6.6,0,.65,0,.84-.34.93-.66.26-1-.85-1.07-.85-1.07-1.18.26-1.17,1-1.17,1A2.67,2.67,0,0,0,15,9.46c1.69,3.16,7.36.47,7.36.47a8.44,8.44,0,0,1,6.71-.66L28.94,12c-3.61,6.33.07,13.77.07,13.77l-1.32,2.36c-5.23-.88-4.72.74-4.72.74-2.43-.45-2.21.81-2.21.81,2.07.14,9,5.45,9,5.45s6.88-5.31,8.94-5.45c0,0,.22-1.26-2.21-.81,0,0,.51-1.62-4.72-.74L30.4,25.77s3.68-7.44.07-13.77l-.15-2.73A8.44,8.44,0,0,1,37,9.93s5.67,2.69,7.36-.47A2.67,2.67,0,0,0,44.75,8Z"/><path id="bandeija01" class="cls-1" d="M47.34,19.15h-.16l-5-9.07-5,9.07H37a2.44,2.44,0,0,0,0,.27v0h0a5.17,5.17,0,0,0,10.29,0h0v0A2.44,2.44,0,0,0,47.34,19.15Zm-5.56.29-3.65-.08L41.78,12Zm.79,0V12l3.65,7.33Z"/><path id="bandeija02" class="cls-1" d="M22.64,19.15h-.16l-5-9.07-5,9.07h-.16a2.44,2.44,0,0,0,0,.27v0h0a5.17,5.17,0,0,0,10.29,0h0v-.29Zm-5.56.29-3.64-.08L17.08,12Zm.79,0V12l3.65,7.33Z"/><path class="cls-1" d="M8.94,27.67,1.43,37.56a51,51,0,0,1,23.87.33S17.45,34.35,5.63,35.4C5.63,35.4,4.25,35.39,8.94,27.67Z"/><path class="cls-2" d="M12.1,24.46l-5,9.67c11.49-1.05,21,3.37,21.49,3.76,0,0-8.18-5.41-17.07-6a1.25,1.25,0,0,1-1.16-1.71Z"/><path class="cls-1" d="M50.65,27.67l7.51,9.89a51,51,0,0,0-23.87.33S42.14,34.35,54,35.4C54,35.4,55.34,35.39,50.65,27.67Z"/><path class="cls-2" d="M47.49,24.46l5,9.67C41,33.08,31.47,37.5,31,37.89c0,0,8.18-5.41,17.07-6a1.25,1.25,0,0,0,1.16-1.71Z"/></g></svg>