<svg id="Camada_1" data-name="Camada 1" xmlns="http://www.w3.org/2000/svg" viewBox="0 0 403.27 129.41"><defs><style>.cls-1,.cls-3{fill:#182743;}.cls-2{fill:#6da9dd;}.cls-3{font-size:36px;font-family:Aleo-Bold, Aleo;font-weight:700;}.cls-4{letter-spacing:-0.02em;}.cls-5{letter-spacing:-0.02em;}.cls-6{letter-spacing:-0.02em;}.cls-7{letter-spacing:0.02em;}</style></defs><title>Prancheta 1</title><g id="advogados-associados-logo"><path class="cls-1" d="M142.14,30.92s.05-2.09-3.48-2.86c0,0-3.33.22-2.55,3.2.26,1,.84,1.89,2.77,2,0,0-2.43,8.38-19.75,0,0,0-13.35-9.49-19.75-8.61l-.22-3.09s6.47-1.64-1.8-10.46V11L97.3,11,97.24,11v.13C89,19.91,95,21.55,95,21.55l-.22,3.09C88.39,23.76,75,33.25,75,33.25c-17.32,8.38-19.75,0-19.75,0,1.93-.1,2.51-1,2.77-2,.78-3-2.55-3.2-2.55-3.2C52,28.83,52,30.92,52,30.92a8,8,0,0,0,1,4.31c5.08,9.49,22.07,1.44,22.07,1.44,11-5.74,20.08-2,20.08-2l-.44,8.16C84,61.82,95,84.11,95,84.11l-4,7.07c-15.67-2.65-14.12,2.2-14.12,2.2-7.29-1.32-6.62,2.43-6.62,2.43,6.18.44,26.78,16.33,26.78,16.33s20.61-15.89,26.79-16.33c0,0,.66-3.75-6.62-2.43,0,0,1.55-4.85-14.12-2.2l-4-7.07s11-22.29.22-41.27l-.45-8.16s9-3.75,20.09,2c0,0,17,8,22.07-1.44A8,8,0,0,0,142.14,30.92Z"/><path id="bandeija01" class="cls-1" d="M149.91,64.26h-.48l-15-27.15s-12.32,22.41-15,27.15H119c0,.28,0,.55,0,.83l0,0h0a15.48,15.48,0,0,0,30.84,0h0l0,0C149.9,64.82,149.91,64.54,149.91,64.26Zm-16.66.87-10.92-.22L133.25,43Zm2.37,0V43l10.93,21.95Z"/><path id="bandeija02" class="cls-1" d="M75.93,64.26h-.48l-15-27.15s-12.33,22.41-15,27.15H45c0,.28,0,.55,0,.83,0,0,0,0,0,0h0a15.48,15.48,0,0,0,30.84,0h0l0,0C75.92,64.82,75.93,64.54,75.93,64.26Zm-16.66.87-10.93-.22L59.27,43Zm2.37,0V43L72.56,64.91Z"/><path class="cls-1" d="M34.88,89.8,12.37,119.42s31.94-8.93,71.5,1c0,0-23.5-10.6-58.92-7.45C25,113,20.81,112.91,34.88,89.8Z"/><path class="cls-2" d="M44.34,80.2l-14.89,29c34.42-3.14,62.89,10.1,64.38,11.26,0,0-24.5-16.22-51.14-18,0,0-4.78-.28-3.48-5.14Z"/><path class="cls-1" d="M159.82,89.8l22.51,29.62s-32-8.93-71.51,1c0,0,23.51-10.6,58.93-7.45C169.75,113,173.89,112.91,159.82,89.8Z"/><path class="cls-2" d="M150.36,80.2l14.89,29c-34.43-3.14-62.89,10.1-64.38,11.26,0,0,24.49-16.22,51.14-18,0,0,4.77-.28,3.48-5.14Z"/></g><text class="cls-3" transform="translate(206.39 56.35)"><tspan class="cls-4">A</tspan><tspan class="cls-5" x="28.51" y="0">d</tspan><tspan class="cls-6" x="48.49" y="0">v</tspan><tspan x="70.02" y="0">ogados </tspan><tspan x="0" y="43.2">As</tspan><tspan class="cls-7" x="43.7" y="43.2">so</tspan><tspan x="78.84" y="43.2">ciados</tspan></text></svg>